<svg width="10" height="13" viewBox="0 0 10 13" fill="none" xmlns="http://www.w3.org/2000/svg">
<path d="M4.38645 0.0276624C3.27908 0.167423 2.25769 0.655315 1.46559 1.42273C0.66568 2.20031 0.17062 3.2015 0.0351294 4.30942C-0.0352213 4.89134 -0.00134872 5.40972 0.149775 6.02467C0.595329 7.82377 2.04664 10.0599 4.24835 12.3393C4.81637 12.9263 4.89975 13 5.00136 13C5.10038 13 5.25411 12.8602 5.8586 12.225C8.28439 9.67369 9.71225 7.30539 9.96239 5.41989C10.1526 3.98416 9.61324 2.48237 8.52932 1.42273C7.78412 0.695973 6.86956 0.236033 5.79346 0.0530734C5.46255 -0.00537197 4.74081 -0.0180775 4.38645 0.0276624ZM5.55896 2.70345C6.40577 2.9296 7.00245 3.5166 7.22913 4.35008C7.29949 4.61181 7.29688 5.14291 7.22132 5.4148C7.06759 5.96622 6.72365 6.43887 6.25986 6.7311C4.77468 7.66876 2.82831 6.71585 2.71367 4.99806C2.67198 4.36787 2.91429 3.75292 3.3833 3.29298C3.72724 2.9601 4.11807 2.75681 4.59489 2.66787C4.83982 2.62213 5.31924 2.63992 5.55896 2.70345Z" fill="#757575" fill-opacity="0.75"/>
</svg>
